<svg width="49" height="49" viewBox="0 0 49 49" fill="none" xmlns="http://www.w3.org/2000/svg">
<path d="M30.0556 24.5C30.0556 27.5682 27.5682 30.0556 24.5 30.0556C21.4317 30.0556 18.9444 27.5682 18.9444 24.5C18.9444 21.4317 21.4317 18.9444 24.5 18.9444C27.5682 18.9444 30.0556 21.4317 30.0556 24.5ZM30.0556 24.5V26.5833C30.0556 28.501 31.6101 30.0556 33.5278 30.0556C35.4454 30.0556 37 28.501 37 26.5833V24.5C37 17.5964 31.4036 12 24.5 12C17.5964 12 12 17.5964 12 24.5C12 31.4036 17.5964 37 24.5 37H30.0556" stroke="black" stroke-width="3" stroke-linecap="round" stroke-linejoin="round"/>
<path d="M41.5455 2H7.45455C4.44208 2 2 4.44208 2 7.45455V41.5455C2 44.5579 4.44208 47 7.45455 47H41.5455C44.5579 47 47 44.5579 47 41.5455V7.45455C47 4.44208 44.5579 2 41.5455 2Z" stroke="black" stroke-width="3.75"/>
</svg>
