<svg width="49" height="49" viewBox="0 0 49 49" fill="none" xmlns="http://www.w3.org/2000/svg">
<path d="M41.5806 2.03223H7.4897C4.47724 2.03223 2.03516 4.47431 2.03516 7.48677V41.5777C2.03516 44.5901 4.47724 47.0322 7.4897 47.0322H41.5806C44.5931 47.0322 47.0352 44.5901 47.0352 41.5777V7.48677C47.0352 4.47431 44.5931 2.03223 41.5806 2.03223Z" stroke="black" stroke-width="3.75"/>
<path d="M14.3086 21.123V36.123" stroke="black" stroke-width="3.75" stroke-linecap="round" stroke-linejoin="round"/>
<path d="M14.3093 16.3501C15.8155 16.3501 17.0366 15.129 17.0366 13.6228C17.0366 12.1165 15.8155 10.8955 14.3093 10.8955C12.8031 10.8955 11.582 12.1165 11.582 13.6228C11.582 15.129 12.8031 16.3501 14.3093 16.3501Z" fill="black"/>
<path d="M34.761 36.123V27.2594C34.761 23.8704 32.0136 21.123 28.6246 21.123C25.2357 21.123 22.4883 23.8704 22.4883 27.2594V36.123" stroke="black" stroke-width="3.75" stroke-linecap="round"/>
</svg>
